<?xml version="1.0" encoding="UTF-8"?>
<svg width="54px" height="60px" viewBox="0 0 54 60" version="1.1" xmlns="http://www.w3.org/2000/svg" xmlns:xlink="http://www.w3.org/1999/xlink">
    <!-- Generator: Sketch 55 (78076) - https://sketchapp.com -->
    <title>Bee</title>
    <desc>Created with Sketch.</desc>
    <defs>
        <linearGradient x1="50%" y1="99.3480785%" x2="50%" y2="0%" id="linearGradient-1">
            <stop stop-color="#F07171" offset="0%"></stop>
            <stop stop-color="#FFBB00" offset="100%"></stop>
        </linearGradient>
    </defs>
    <g id="P1" stroke="none" stroke-width="1" fill="none" fill-rule="evenodd">
        <g id="ME/leader-board" transform="translate(-249.000000, -1101.000000)" fill="url(#linearGradient-1)">
            <g id="Group-11" transform="translate(241.000000, 1056.000000)">
                <g id="Stacked-Group" transform="translate(0.000000, 40.000000)">
                    <g id="Group-27">
                        <g>
                            <g id="bee">
                                <g id="noun_Ant_2409307" transform="translate(8.400000, 4.900000)">
                                    <path d="M1.52471394,12.613554 L26.6125978,0.31093265 L51.9387327,12.6160033 C52.8405149,13.0541474 53.4129677,13.9687259 53.4129677,14.9713133 L53.4129677,43.6089879 C53.4129677,44.5664218 52.8904383,45.4475281 52.0503154,45.9067373 L26.6125978,59.8109326 L1.41275397,45.9087177 C0.577637203,45.4480016 0.0590620464,44.5696599 0.0590620464,43.6158888 L0.0590620464,14.9646743 C0.0590620464,13.9655323 0.627629147,13.0534674 1.52471394,12.613554 Z M26.2152544,17.7428109 C25.6721848,17.7999761 25.1576979,17.9428892 24.7003761,18.1143848 C24.6717935,17.6856457 24.5574631,17.2854892 24.3573848,16.9424979 C24.1858892,16.6852544 23.9858109,16.4280109 23.7285674,16.2565153 C23.3855761,16.0278544 22.9854196,15.8563587 22.5566805,15.8277761 C22.1279413,15.7991935 21.8421152,15.4276196 21.8706979,14.9988805 C21.8992805,14.5701414 22.2708544,14.2843153 22.6995935,14.3128979 C24.5860457,14.4843935 26.0151761,15.9421066 26.2152544,17.7428109 Z M28.9020196,18.1429674 C28.4161152,17.9428892 27.9302109,17.7999761 27.3871413,17.7428109 C27.5872196,15.913524 29.01635,14.4843935 30.9028022,14.3414805 C31.3315413,14.2843153 31.7031152,14.598724 31.7316979,15.0274631 C31.7888631,15.4562022 31.4744544,15.8277761 31.0457152,15.8563587 C30.6169761,15.8849414 30.2168196,16.056437 29.8738283,16.2850979 C29.6165848,16.4565935 29.4165065,16.713837 29.2450109,16.9710805 C29.01635,17.3140718 28.9020196,17.7142283 28.9020196,18.1429674 Z M26.1295065,21.315637 C25.6150196,21.3728022 25.1005326,21.5157153 24.6146283,21.7443761 L22.6138457,22.2874457 C22.8996718,20.2294979 24.6717935,18.6288718 26.8154892,18.6288718 C28.9591848,18.6288718 30.7598892,20.2294979 31.0171326,22.3160283 L29.2450109,21.830124 C28.6161935,21.5157153 27.9302109,21.3442196 27.2728109,21.2870544 L27.2442283,21.2870544 C27.1870631,21.2870544 27.1298979,21.2870544 27.0727326,21.2870544 C26.8726544,21.2584718 26.6725761,21.2870544 26.4724979,21.2870544 C26.38675,21.2584718 26.3295848,21.2584718 26.243837,21.2870544 L26.1295065,21.315637 Z M21.8706979,42.6096805 C23.1854979,41.3520457 24.929037,40.6374805 26.7583239,40.6660631 C28.6161935,40.6660631 30.3597326,41.3806283 31.7031152,42.6382631 C31.64595,42.6954283 31.6173674,42.7811761 31.5602022,42.8383413 C31.503037,42.8955066 31.4458718,42.9812544 31.3887065,43.0670022 C31.3029587,43.1813327 31.2172109,43.2956631 31.1314631,43.4099935 C31.0742979,43.4671587 31.0171326,43.5529066 30.9599674,43.6100718 C30.845637,43.7244022 30.7598892,43.8387327 30.6455587,43.9530631 C30.6169761,43.9816457 30.5598109,44.0388109 30.5026457,44.0959761 C30.4454805,44.1531413 30.3883152,44.181724 30.33115,44.2388892 C29.3879239,43.3242457 28.1302892,42.7811761 26.7869065,42.7811761 C25.4435239,42.7811761 24.1858892,43.2956631 23.2426631,44.2388892 C23.1854979,44.2103066 23.1283326,44.1531413 23.0711674,44.0959761 C23.0425848,44.0388109 22.9854196,43.9816457 22.9282544,43.9244805 C22.8139239,43.81015 22.7281761,43.6958196 22.6138457,43.5814892 C22.5566805,43.524324 22.4995152,43.4385761 22.44235,43.3814109 C22.3566022,43.2670805 22.2708544,43.15275 22.1851065,43.0384196 C22.1279413,42.9812544 22.0707761,42.8955066 22.0136109,42.8097587 C21.9564457,42.7525935 21.9278631,42.6668457 21.8706979,42.6096805 Z M28.216037,28.2897935 C29.0735152,31.834037 31.1028805,34.8352109 33.8753935,36.950324 C33.7610631,37.6363066 33.61815,38.265124 33.4466544,38.8939413 C31.5316196,37.4648109 29.2164283,36.6930805 26.8154892,36.6930805 C24.4431326,36.6930805 22.0993587,37.4648109 20.1843239,38.8653587 C20.0128283,38.2079587 19.8699152,37.5219761 19.7555848,36.8359935 C22.44235,34.7780457 24.41455,31.7768718 25.2720283,28.2897935 L26.7297413,22.2016979 C26.7297413,22.2016979 26.7583239,22.2016979 26.7583239,22.2016979 L28.216037,28.2897935 Z M23.9572283,44.839124 C24.7289587,44.0959761 25.72935,43.6958196 26.7297413,43.7244022 C27.7872979,43.7244022 28.7876892,44.1245587 29.5594196,44.839124 C29.4165065,44.9248718 29.3021761,45.0106196 29.1878457,45.0677848 C29.1306805,45.0963674 29.1020979,45.0963674 29.0735152,45.12495 C28.9877674,45.1821153 28.9020196,45.2106979 28.8162718,45.2678631 C28.7591065,45.2964457 28.7305239,45.2964457 28.6733587,45.3250283 C28.6161935,45.3821935 28.5304457,45.4107761 28.4446979,45.4393587 C28.4161152,45.4679413 28.35895,45.4679413 28.3017848,45.496524 C28.216037,45.5251066 28.1588718,45.5536892 28.0731239,45.5822718 C28.0445413,45.6108544 27.9873761,45.639437 27.9302109,45.639437 C27.8730457,45.6680196 27.7872979,45.6680196 27.70155,45.6966022 C27.6443848,45.6966022 27.6158022,45.7251848 27.558637,45.7251848 C27.4728892,45.7251848 27.3871413,45.7537674 27.3013935,45.7537674 C27.2728109,45.78235 27.2156457,45.78235 27.1870631,45.78235 C27.04415,45.8109326 26.9298196,45.8109326 26.7869065,45.8109326 C26.6439935,45.8109326 26.5296631,45.78235 26.38675,45.78235 C26.3581674,45.7537674 26.3010022,45.7537674 26.2724196,45.7537674 C26.1866718,45.7537674 26.1009239,45.7537674 26.0151761,45.7251848 C25.9580109,45.7251848 25.9294283,45.6966022 25.8722631,45.6966022 C25.7865152,45.6680196 25.7007674,45.6680196 25.6150196,45.639437 C25.586437,45.6108544 25.5292718,45.6108544 25.4721065,45.5822718 C25.4149413,45.5536892 25.3291935,45.5251066 25.2434457,45.496524 C25.1862805,45.4679413 25.1576979,45.4679413 25.1005326,45.4393587 C25.0147848,45.4107761 24.929037,45.3536109 24.8432892,45.3250283 C24.7861239,45.2964457 24.7575413,45.2964457 24.7003761,45.2678631 C24.6146283,45.2392805 24.5002979,45.1821153 24.41455,45.12495 C24.3859674,45.0963674 24.3573848,45.0963674 24.3288022,45.0677848 C24.1858892,45.0106196 24.0715587,44.9248718 23.9572283,44.839124 Z M20.47015,39.7800022 C22.2708544,38.3508718 24.5002979,37.5791413 26.7869065,37.5791413 C29.1020979,37.5791413 31.3315413,38.3508718 33.1322457,39.7800022 C33.1036631,39.86575 33.0750805,39.9514979 33.0464979,40.0372457 C33.0179152,40.1515761 32.96075,40.2659066 32.9321674,40.3516544 C32.8750022,40.4945674 32.817837,40.6374805 32.7606718,40.7803935 C32.7320892,40.8661413 32.6749239,40.9518892 32.6463413,41.037637 C32.5605935,41.2091327 32.5034283,41.3520457 32.4176805,41.4949587 C32.3605152,41.552124 32.3319326,41.6378718 32.30335,41.695037 C32.2747674,41.7236196 32.2461848,41.7807848 32.2176022,41.8093674 C30.7313065,40.4659848 28.8162718,39.722837 26.7869065,39.722837 C24.7575413,39.722837 22.8425065,40.4659848 21.3562109,41.8093674 C21.3562109,41.7807848 21.3276283,41.7236196 21.2990457,41.695037 C21.2418805,41.6378718 21.2132979,41.552124 21.1847152,41.4949587 C21.0989674,41.3520457 21.0132196,41.2091327 20.9560544,41.0662196 C20.9274718,40.9518892 20.8703065,40.8661413 20.8417239,40.7803935 C20.7845587,40.6374805 20.7273935,40.4945674 20.6702283,40.3516544 C20.6416457,40.237324 20.5844805,40.1515761 20.5558979,40.0372457 C20.5273152,39.9514979 20.4987326,39.86575 20.47015,39.7800022 Z M24.3573848,28.0611327 C23.0711674,33.3203327 19.0981848,37.3504805 13.9533152,38.55095 C12.1240283,38.9796892 10.8092283,38.8939413 10.1804109,38.2937066 C9.55159351,37.6934718 9.43726308,36.4072544 9.80883699,34.5779674 C10.8663935,29.4330979 14.7822109,25.3457848 20.0414109,23.9166544 L25.72935,22.3731935 L24.3573848,28.0611327 Z M33.4180718,23.9166544 C38.6772718,25.3457848 42.5930892,29.4330979 43.6506457,34.5779674 C44.0508022,36.4072544 43.9078892,37.6934718 43.2790718,38.2937066 C42.6502544,38.8939413 41.3354544,38.9796892 39.5061674,38.55095 C34.3612979,37.3504805 30.3597326,33.3203327 29.1020979,28.0611327 L27.7301326,22.3731935 L33.4180718,23.9166544 Z" id="Combined-Shape"></path>
                                </g>
                            </g>
                        </g>
                    </g>
                </g>
            </g>
        </g>
    </g>
</svg>