<?xml version="1.0" encoding="UTF-8"?>
<svg width="62px" height="58px" viewBox="0 0 62 58" version="1.1" xmlns="http://www.w3.org/2000/svg" xmlns:xlink="http://www.w3.org/1999/xlink">
    <!-- Generator: Sketch 55 (78076) - https://sketchapp.com -->
    <title>Elephant</title>
    <desc>Created with Sketch.</desc>
    <defs>
        <linearGradient x1="50%" y1="0%" x2="50%" y2="100%" id="linearGradient-1">
            <stop stop-color="#7ED321" offset="0%"></stop>
            <stop stop-color="#27AC70" offset="100%"></stop>
        </linearGradient>
    </defs>
    <g id="P1" stroke="none" stroke-width="1" fill="none" fill-rule="evenodd">
        <g id="ME/leader-board" transform="translate(-913.000000, -1101.000000)" fill="url(#linearGradient-1)">
            <g id="Group-11" transform="translate(241.000000, 1056.000000)">
                <g id="Stacked-Group" transform="translate(0.000000, 40.000000)">
                    <g id="Group-16">
                        <g transform="translate(668.000000, 0.000000)">
                            <g id="Elephant">
                                <path d="M36.6457987,5.74574275 L63.9782211,25.60391 C64.9595859,26.3169132 65.3702286,27.5807418 64.9953807,28.7344052 L54.5553243,60.8655948 C54.1804763,62.0192582 53.1053996,62.8003472 51.892366,62.8003472 L18.107634,62.8003472 C16.8946004,62.8003472 15.8195237,62.0192582 15.4446757,60.8655948 L5.00461934,28.7344052 C4.62977137,27.5807418 5.04041414,26.3169132 6.02177888,25.60391 L33.3542013,5.74574275 C34.335566,5.03273953 35.664434,5.03273953 36.6457987,5.74574275 Z M48.4408139,41.9892058 C48.0942597,42.1087793 47.8595297,42.4863309 47.8944019,42.8849223 C47.9054438,45.5615721 49.6658792,46.3000925 50.6845018,46.2109746 C54.3565259,45.8450872 55.3098609,42.4592884 55.4527227,39.5014123 L55.50476,39.5861135 C55.50476,39.5861135 59.1059154,39.9404571 59.2913987,37.4697483 C59.2913987,37.4697483 58.7339047,39.258973 55.4831782,38.8293438 C55.2578638,38.8044294 55.0325494,38.7795149 54.7590724,38.7141872 C54.7590724,38.7141872 54.7147844,38.7180619 54.7147844,38.7180619 C54.4413074,38.6527341 54.1678304,38.5874064 53.8943534,38.5220787 C53.8943534,38.5220787 52.2208275,38.2668509 50.9088124,37.0428294 C50.7028715,37.2393547 50.4448932,37.3511787 50.2754909,37.4552533 C50.9226449,37.7110232 51.275282,38.1710677 51.275282,38.1710677 C51.7076214,40.0522008 51.6765837,43.2680552 50.5810094,43.4977863 C49.0907183,43.8066776 49.6482123,42.017453 49.1455462,41.8829228 C48.960645,41.8098457 48.6545042,41.8812565 48.4408139,41.9892058 Z M43.8160771,39.6269483 C44.8153262,39.3163906 45.2261239,36.8705963 44.1981258,33.7920225 C43.1895012,30.9348884 42.8806099,29.4445973 42.8728605,29.3560214 C42.8806099,29.4445973 43.0311809,30.1454549 44.0470128,32.064793 C45.1187568,34.1131201 45.3700698,35.9654641 45.3700698,35.9654641 C46.431314,36.3635135 46.9301054,36.4537557 47.3846088,36.5478726 C47.1570861,35.9876282 46.9063151,35.1616561 47.106173,34.385513 C47.106173,34.385513 47.3303631,35.9278415 47.9836002,36.7632292 C48.0317628,36.8036424 48.0760507,36.7997678 48.1242133,36.840181 C48.8272793,37.22494 49.2779081,37.2747689 49.6283369,37.1994835 C50.2849066,37.0527872 50.6525005,36.6636115 50.7776149,36.5634115 C50.9796811,36.3225984 51.5283015,35.9622118 52.2158687,36.169819 C52.4007698,36.2428961 53.6087103,37.2975152 55.4305988,37.7182707 C55.2767353,34.4293392 54.0577129,34.2682283 53.444347,32.358306 C52.7789439,30.3636825 50.5263823,27.5707518 50.5263823,27.5707518 C50.5263823,27.5707518 47.9831786,25.0263837 47.2706969,25.0440908 C46.5582152,25.061798 45.5047204,24.7523245 43.5505101,25.369565 C43.5505101,25.369565 40.2610366,24.4970565 38.1795036,24.679167 C36.1018452,24.9055655 34.9597344,28.1739992 34.9597344,28.1739992 C33.6925091,31.5426329 35.1118913,35.5241306 37.8294963,36.491298 C40.4585255,37.4662149 42.816828,39.9375059 43.8160771,39.6269483 Z M49.5115942,31.2743155 C48.7188281,32.4147199 48.0960466,30.9072637 48.0960466,30.9072637 C48.0960466,30.9072637 48.6756644,30.9011806 49.0897547,31.0434601 C49.5038449,31.1857397 49.5115942,31.2743155 49.5115942,31.2743155 Z M17.0671666,51.1603221 C17.4873399,51.8822195 17.5587507,52.1883604 17.6954892,52.2210242 C17.8493928,51.9397978 18.4860469,50.54529 17.5300017,48.799229 C17.5300017,48.799229 17.59812,46.517296 17.4198841,44.4800509 C17.3152674,43.2842766 17.1757785,41.6899108 17.2521882,40.5229257 C17.4276737,40.9984689 17.5588711,41.4778868 17.5937434,41.8764783 C17.6789866,42.8508129 17.9961693,45.4560518 18.8060604,47.5719151 C19.6159515,49.6877783 18.8187284,53.3276806 19.1298281,55.3533017 C19.1298281,55.3533017 18.5994569,57.4525419 20.0321697,57.5057035 C21.4610078,57.5145771 24.648073,57.7266413 24.2622299,56.3769634 C23.9245494,55.0676987 22.5283752,54.9220865 22.6125343,53.8436773 C22.9015503,50.5159989 24.8496775,49.3191405 25.5555341,47.6954435 C25.5555341,47.6954435 28.9258341,48.4716268 34.5919396,46.4139642 L36.5035283,45.3095564 C36.5035283,45.3095564 35.9986538,44.6396963 35.6626397,42.8393896 C35.4888206,41.8728044 35.797752,39.7929377 35.797752,39.7929377 C35.797752,39.7929377 35.7938372,43.3188076 37.2082606,45.2032734 C37.2082606,45.2032734 37.8337926,48.2724315 37.7784226,49.1698143 C37.7230526,50.0671971 38.1542678,53.4657442 38.1542678,53.4657442 C38.1542678,53.4657442 36.9385378,55.8927071 38.5600264,56.0632338 C40.0004885,56.2049712 44.3872027,56.3567066 43.7046345,54.6759734 C43.5368984,54.289006 43.2036347,54.0504012 42.8338324,53.904247 C42.4679049,53.8023808 41.7283003,53.5100723 41.6220173,52.80534 C41.4769874,51.6577283 41.8401645,50.1978927 42.0162322,48.1296501 C42.1253058,46.8259264 42.650678,46.1998122 42.3755748,43.0553686 C42.3755748,43.0553686 42.4231954,42.0694099 42.5034798,40.9467127 L42.8129132,43.4633758 C42.8129132,43.4633758 43.3244529,42.1690678 43.7014625,41.377426 C44.0784721,40.5857841 44.1476745,40.356595 44.1476745,40.356595 C44.1476745,40.356595 43.6682566,40.4877925 43.0808893,40.4052997 C41.9581921,40.3250153 40.7192541,38.9160927 39.5943485,38.3004783 C38.469443,37.684864 38.1727178,37.3538086 37.1635109,37.0404604 C36.1543041,36.7271122 34.0639375,34.767903 33.7694609,31.4020197 C33.4749843,28.0361365 35.0549755,26.2020818 35.0549755,26.2020818 C34.2694167,26.4046901 33.6322205,26.7728261 33.6322205,26.7728261 C33.6322205,26.7728261 32.240463,27.6978738 30.544231,28.2032903 C28.847999,28.7087068 24.7425112,28.710875 22.0702782,29.7925768 C20.0468655,30.6390064 17.7687671,34.1853338 16.8901755,36.8951895 C16.7728105,37.0839653 16.1012841,38.0798818 16.1599465,39.7705728 C16.2047765,40.79307 16.3569736,44.5730435 16.7295263,46.2808996 C16.7295263,46.2808996 17.0367513,48.2622327 16.8579332,48.7687735 C16.6791151,49.2753143 16.3868067,50.0149188 17.0671666,51.1603221 Z M42.1180583,51.3338803 C41.9840702,52.8629184 42.4673628,52.7760088 43.1704288,53.1607678 C43.8734948,53.5455268 44.2455054,54.2270109 44.2455054,54.2270109 L44.9674028,53.8068377 C45.4196979,53.3656246 44.3678694,52.5651091 44.577143,51.3864999 C44.7902912,50.2521786 45.7103802,49.5469042 45.7192538,48.1180661 C45.7724154,46.6853534 43.3194539,43.6421939 43.3194539,43.6421939 L43.05206,44.156484 C43.0908069,44.5993634 42.6573031,47.805802 42.6573031,47.805802 C43.0929751,48.7048512 42.2963343,49.8009676 42.1180583,51.3338803 Z M26.0316193,48.54633 L25.1790665,49.5134573 C25.6357783,50.1429042 27.1841497,54.0684898 27.1841497,54.0684898 C27.1841497,54.0684898 27.0867001,55.5050772 28.4961647,55.2925112 C29.9499173,55.0760705 31.2132277,55.2333067 31.2514326,54.6498141 C31.2935121,54.1106095 30.5461582,53.7297252 30.5461582,53.7297252 C30.5461582,53.7297252 29.4168359,52.0434509 28.9905796,50.7419357 C28.5643232,49.4404204 28.7774715,48.3060991 28.7774715,48.3060991 C27.9149609,48.6493206 26.0316193,48.54633 26.0316193,48.54633 Z M15.4223238,53.3339321 C15.4223238,53.3339321 15.3743452,53.3381297 15.3701476,53.2901511 C15.4223238,53.3339321 15.4223238,53.3339321 15.4223238,53.3339321 Z" id="Combined-Shape"></path>
                            </g>
                        </g>
                    </g>
                </g>
            </g>
        </g>
    </g>
</svg>