<?xml version="1.0" encoding="UTF-8"?>
<svg width="64px" height="64px" viewBox="0 0 64 64" version="1.1" xmlns="http://www.w3.org/2000/svg" xmlns:xlink="http://www.w3.org/1999/xlink">
    <!-- Generator: Sketch 55 (78076) - https://sketchapp.com -->
    <title>Hawk</title>
    <desc>Created with Sketch.</desc>
    <defs>
        <linearGradient x1="50%" y1="100%" x2="50%" y2="3.80311108%" id="linearGradient-1">
            <stop stop-color="#766CD9" stop-opacity="0.984347684" offset="0%"></stop>
            <stop stop-color="#C86DD7" offset="100%"></stop>
        </linearGradient>
    </defs>
    <g id="P1" stroke="none" stroke-width="1" fill="none" fill-rule="evenodd">
        <g id="ME/leader-board" transform="translate(-578.000000, -1099.000000)" fill="url(#linearGradient-1)">
            <g id="Group-11" transform="translate(241.000000, 1056.000000)">
                <g id="Stacked-Group" transform="translate(0.000000, 40.000000)">
                    <g id="Group-12">
                        <g transform="translate(334.000000, 0.000000)">
                            <g id="Howk">
                                <g id="noun_Eagle_704258" transform="translate(35.175000, 35.000000) scale(-1, 1) translate(-35.175000, -35.000000) translate(2.625000, 2.450000)">
                                    <path d="M45.0524915,12.5013319 C39.8964741,14.8074778 33.0970108,19.1680577 30.408682,26.7920763 C30.2772562,27.2438803 28.5510198,32.8717384 24.4569057,32.8717384 L24.4560207,32.8717384 C23.93784,32.8717384 23.4019589,32.7827936 22.8629802,32.5973814 C21.8744101,32.2584178 20.7902575,32.0376047 19.729558,32.0376047 C17.4165517,32.0376047 14.7428987,32.9633382 13.8286705,35.4467113 C14.0950623,35.5493739 14.4123428,35.707793 14.7349335,35.9122332 C15.1902776,35.275017 16.7704853,33.3894765 16.7704853,33.3894765 L16.6479097,35.4108679 L14.8964501,36.0277286 C15.3124107,36.3162459 15.7186361,36.7052133 16.012021,37.2185264 C16.3925807,37.1959583 16.8877508,37.126484 17.3661054,36.9379742 L17.4400048,36.9145212 C17.5603679,36.8680575 17.7864911,36.8003532 18.095364,36.8003532 C18.941888,36.8003532 20.1968499,37.284018 21.37924,39.584634 L21.4031356,39.6452581 C21.4115433,39.6669411 22.3430295,41.609123 23.9183695,43.3419971 C23.9489028,43.2694252 24.1573256,43.1990659 24.1573256,43.1304767 L24.1573256,43.1362293 C24.1573256,43.1362293 24.2400752,42.6162786 24.8171099,42.8932907 C25.3021022,43.1260516 25.1742165,43.5043987 25.1423556,43.6203366 C25.0326129,43.8756656 24.8870267,44.1314371 24.7932143,44.3827835 L24.6511682,44.7261723 C24.5741712,44.9461004 24.4976168,45.1452304 24.4431879,45.3271025 C24.4312401,45.3669286 24.4153097,45.405427 24.4038044,45.4448105 C24.3909715,45.4890617 24.3750411,45.5355253 24.3635358,45.5771214 C24.3529156,45.6151774 24.3427378,45.6505783 24.3334451,45.6868642 L24.1179421,46.2050449 C24.0028892,45.9121024 23.8577455,45.6240276 23.6727758,45.3660435 L23.6829535,45.3394929 L23.6373749,45.3204649 C23.5453325,45.1970042 23.4448825,45.0788537 23.3329271,44.9735361 C23.2939862,44.9363651 23.2528326,44.9036193 23.2125641,44.8704309 C23.2311496,44.8089219 23.24885,44.7478553 23.267878,44.6867888 C23.0736156,44.4951814 22.8899734,44.3004764 22.7151814,44.104444 C22.6665052,44.2398524 22.620484,44.3730483 22.5771179,44.5044741 C22.3138237,44.4088917 22.0306165,44.3637555 21.734134,44.3730483 L21.7677649,45.32489 C21.6288163,45.0881465 21.4637596,44.8664483 21.2650721,44.6788236 C20.8261009,44.263748 20.277387,44.0601928 19.6667214,44.0774508 L19.7127426,45.3695836 C19.9844445,45.3558658 20.1875572,45.4386154 20.3765095,45.6169474 C20.4504089,45.6868642 20.5176706,45.7696138 20.5796221,45.8594436 C20.5406812,45.8740464 20.5017402,45.8904194 20.4627992,45.9094473 C20.0176329,45.6257976 19.5339681,45.4310927 19.0525158,45.4474656 C18.6653185,45.4563158 18.1130644,45.5965919 17.6780759,46.2355781 L18.7467405,46.8927073 C18.8985219,46.6705667 19.0219825,46.5887021 19.0817216,46.5887021 C19.0857042,46.5887021 19.0896868,46.5887021 19.0941119,46.5887021 C19.6773417,46.5887021 20.6884799,47.6312586 21.2447166,48.3428167 L22.1005333,49.6964586 L23.1855709,49.0092387 L22.5576474,48.0467767 L22.5983585,47.9525218 C22.9001511,48.2383841 23.1789332,48.5547796 23.3816034,48.8247115 L23.4594854,48.9264891 L24.1688309,50.0225894 L25.2538685,49.3198816 L24.6255025,48.3503394 L25.7295681,45.6890767 C25.7393033,45.6762439 25.7490386,45.6638536 25.7583313,45.6505783 L25.8720567,45.4934868 C26.0331308,45.2585133 26.1946474,44.9943341 26.3495263,44.7067018 C26.4495339,44.5761609 26.7469014,44.2659606 27.2049006,44.4761534 C27.6425442,44.6770535 27.6168786,45.0000867 27.5819202,45.1394778 C27.4810276,45.3332977 27.3752674,45.5253476 27.260657,45.7160699 C27.6151085,45.8320079 27.9739851,45.9205101 28.3346318,45.9722839 L28.6607626,46.0200752 L28.8196241,46.3108051 C28.8652028,46.3966522 29.8891738,48.256527 29.1700931,50.5491778 C29.5488827,50.6102444 29.9099719,50.673966 30.7949944,50.7058268 L30.7949944,48.4861904 C30.7949944,48.0348289 30.9812916,47.312208 31.8295857,48.5800027 C31.8756068,48.6481495 31.882687,48.706561 31.920743,48.7614324 L33.1686247,50.6301574 C34.6585601,50.4611181 36.0060069,50.0717082 37.2193727,49.4672378 C37.2839793,49.4216591 37.3729241,49.3672303 37.5034649,49.3039512 C38.4345086,48.8463945 37.9729694,48.4246813 37.622943,48.2162585 C34.8807007,47.1984826 30.8073847,44.753608 31.0392606,39.2483255 L31.0574035,38.7712984 L31.5189428,38.6509353 C31.5344307,38.6465102 32.8747972,38.2916162 34.8222893,37.4242941 L34.3775655,36.1073806 C34.1377244,35.1843022 34.8935336,35.2281108 35.4156968,35.3568815 L37.4928447,36.0777324 C38.3371561,35.6002627 39.158457,35.0842946 39.9447995,34.5369082 L38.2942325,33.4120446 C36.9883818,32.4982589 38.5088505,32.6115417 39.2297013,32.7040266 L41.7635207,33.1615832 C43.0848593,32.0747756 44.2805247,30.8884029 45.3310464,29.6197232 L42.2684261,29.3758995 C40.8338046,29.0931348 42.9967996,28.078899 43.2981498,27.9417205 L47.358633,26.7752609 C48.0724036,25.599951 48.6843967,24.3578219 49.187532,23.0679016 L46.8754107,23.3719068 C46.8276195,23.3763319 46.7776157,23.3816421 46.7240719,23.3873947 C44.3787622,23.6489189 45.844802,22.1735864 46.335547,21.72665 L50.3774447,18.9844078 C50.442549,18.6602677 50.5017109,18.3333887 50.5549425,18.003783 L63.0359896,30.4848301 C64.1535032,31.6023437 64.1535032,33.4141914 63.0359896,34.5317051 L34.7078646,62.8598301 C33.5903509,63.9773437 31.7785032,63.9773437 30.6609896,62.8598301 L2.33286458,34.5317051 C1.2153509,33.4141914 1.2153509,31.6023437 2.33286458,30.4848301 L30.6609896,2.15670506 C31.7785032,1.03919138 33.5903509,1.03919138 34.7078646,2.15670506 L45.0524915,12.5013319 Z M22.049202,45.9076773 C22.0182262,45.8293528 21.9850379,45.7510283 21.9500795,45.6744739 C22.0124736,45.6815541 22.0722126,45.6952719 22.128854,45.7160699 L22.049202,45.9076773 Z M12.9684286,38.401359 C13.3388105,37.9977887 13.8525661,37.5716504 14.4884548,37.3565899 C14.0946198,36.9848804 13.6069724,36.7614123 13.2759739,36.6410492 C12.9082471,37.2061361 12.8024869,37.7955611 12.9684286,38.401359 Z M27.3026956,30.004708 C28.5581,28.5006122 29.1616853,26.4442624 29.1705356,26.4110741 L29.1829259,26.3800983 C30.5334702,22.5382156 32.8190408,19.4897556 35.420122,17.0900171 C35.5449101,15.9917042 34.9214118,11.2771893 32.4176831,8.47609311 C32.0844722,8.17031783 31.8503837,8.30041614 31.7247105,8.43272701 C30.2077819,10.6289103 26.6681344,16.6572411 26.8194733,24.9065359 C26.9013379,25.3326742 27.2880927,27.6509906 26.4601542,29.6042353 L26.4898024,29.5772421 C26.4898024,29.5776846 25.8083351,31.2140912 27.3026956,30.004708 Z" id="Combined-Shape"></path>
                                </g>
                            </g>
                        </g>
                    </g>
                </g>
            </g>
        </g>
    </g>
</svg>